<svg id="visual" viewBox="0 0 900 600" width="900" height="600" xmlns="http://www.w3.org/2000/svg" xmlns:xlink="http://www.w3.org/1999/xlink" version="1.1"><path d="M0 37L13.7 35C27.3 33 54.7 29 82 29C109.3 29 136.7 33 163.8 36C191 39 218 41 245.2 42C272.3 43 299.7 43 327 43C354.3 43 381.7 43 409 45C436.3 47 463.7 51 491 53C518.3 55 545.7 55 573 55C600.3 55 627.7 55 654.8 55C682 55 709 55 736.2 56C763.3 57 790.7 59 818 58C845.3 57 872.7 53 886.3 51L900 49L900 0L886.3 0C872.7 0 845.3 0 818 0C790.7 0 763.3 0 736.2 0C709 0 682 0 654.8 0C627.7 0 600.3 0 573 0C545.7 0 518.3 0 491 0C463.7 0 436.3 0 409 0C381.7 0 354.3 0 327 0C299.7 0 272.3 0 245.2 0C218 0 191 0 163.8 0C136.7 0 109.3 0 82 0C54.7 0 27.3 0 13.7 0L0 0Z" fill="#ffc161"></path><path d="M0 97L13.7 105C27.3 113 54.7 129 82 129C109.3 129 136.7 113 163.8 105C191 97 218 97 245.2 109C272.3 121 299.7 145 327 147C354.3 149 381.7 129 409 131C436.3 133 463.7 157 491 160C518.3 163 545.7 145 573 133C600.3 121 627.7 115 654.8 122C682 129 709 149 736.2 149C763.3 149 790.7 129 818 116C845.3 103 872.7 97 886.3 94L900 91L900 47L886.3 49C872.7 51 845.3 55 818 56C790.7 57 763.3 55 736.2 54C709 53 682 53 654.8 53C627.7 53 600.3 53 573 53C545.7 53 518.3 53 491 51C463.7 49 436.3 45 409 43C381.7 41 354.3 41 327 41C299.7 41 272.3 41 245.2 40C218 39 191 37 163.8 34C136.7 31 109.3 27 82 27C54.7 27 27.3 31 13.7 33L0 35Z" fill="#ffb84d"></path><path d="M0 199L13.7 201C27.3 203 54.7 207 82 206C109.3 205 136.7 199 163.8 185C191 171 218 149 245.2 162C272.3 175 299.7 223 327 232C354.3 241 381.7 211 409 202C436.3 193 463.7 205 491 212C518.3 219 545.7 221 573 209C600.3 197 627.7 171 654.8 167C682 163 709 181 736.2 183C763.3 185 790.7 171 818 160C845.3 149 872.7 141 886.3 137L900 133L900 89L886.3 92C872.7 95 845.3 101 818 114C790.7 127 763.3 147 736.2 147C709 147 682 127 654.8 120C627.7 113 600.3 119 573 131C545.7 143 518.3 161 491 158C463.7 155 436.3 131 409 129C381.7 127 354.3 147 327 145C299.7 143 272.3 119 245.2 107C218 95 191 95 163.8 103C136.7 111 109.3 127 82 127C54.7 127 27.3 111 13.7 103L0 95Z" fill="#ffb037"></path><path d="M0 385L13.7 370C27.3 355 54.7 325 82 321C109.3 317 136.7 339 163.8 330C191 321 218 281 245.2 277C272.3 273 299.7 305 327 319C354.3 333 381.7 329 409 334C436.3 339 463.7 353 491 358C518.3 363 545.7 359 573 354C600.3 349 627.7 343 654.8 331C682 319 709 301 736.2 284C763.3 267 790.7 251 818 260C845.3 269 872.7 303 886.3 320L900 337L900 131L886.3 135C872.7 139 845.3 147 818 158C790.7 169 763.3 183 736.2 181C709 179 682 161 654.8 165C627.7 169 600.3 195 573 207C545.7 219 518.3 217 491 210C463.7 203 436.3 191 409 200C381.7 209 354.3 239 327 230C299.7 221 272.3 173 245.2 160C218 147 191 169 163.8 183C136.7 197 109.3 203 82 204C54.7 205 27.3 201 13.7 199L0 197Z" fill="#ffa71b"></path><path d="M0 445L13.7 427C27.3 409 54.7 373 82 367C109.3 361 136.7 385 163.8 378C191 371 218 333 245.2 328C272.3 323 299.7 351 327 361C354.3 371 381.7 363 409 369C436.3 375 463.7 395 491 404C518.3 413 545.7 411 573 407C600.3 403 627.7 397 654.8 386C682 375 709 359 736.2 344C763.3 329 790.7 315 818 324C845.3 333 872.7 365 886.3 381L900 397L900 335L886.3 318C872.7 301 845.3 267 818 258C790.7 249 763.3 265 736.2 282C709 299 682 317 654.8 329C627.7 341 600.3 347 573 352C545.7 357 518.3 361 491 356C463.7 351 436.3 337 409 332C381.7 327 354.3 331 327 317C299.7 303 272.3 271 245.2 275C218 279 191 319 163.8 328C136.7 337 109.3 315 82 319C54.7 323 27.3 353 13.7 368L0 383Z" fill="#f59c00"></path><path d="M0 529L13.7 533C27.3 537 54.7 545 82 539C109.3 533 136.7 513 163.8 502C191 491 218 489 245.2 498C272.3 507 299.7 527 327 534C354.3 541 381.7 535 409 532C436.3 529 463.7 529 491 527C518.3 525 545.7 521 573 513C600.3 505 627.7 493 654.8 489C682 485 709 489 736.2 493C763.3 497 790.7 501 818 504C845.3 507 872.7 509 886.3 510L900 511L900 395L886.3 379C872.7 363 845.3 331 818 322C790.7 313 763.3 327 736.2 342C709 357 682 373 654.8 384C627.7 395 600.3 401 573 405C545.7 409 518.3 411 491 402C463.7 393 436.3 373 409 367C381.7 361 354.3 369 327 359C299.7 349 272.3 321 245.2 326C218 331 191 369 163.8 376C136.7 383 109.3 359 82 365C54.7 371 27.3 407 13.7 425L0 443Z" fill="#e08f01"></path><path d="M0 571L13.7 573C27.3 575 54.7 579 82 580C109.3 581 136.7 579 163.8 575C191 571 218 565 245.2 566C272.3 567 299.7 575 327 575C354.3 575 381.7 567 409 562C436.3 557 463.7 555 491 554C518.3 553 545.7 553 573 553C600.3 553 627.7 553 654.8 552C682 551 709 549 736.2 551C763.3 553 790.7 559 818 559C845.3 559 872.7 553 886.3 550L900 547L900 509L886.3 508C872.7 507 845.3 505 818 502C790.7 499 763.3 495 736.2 491C709 487 682 483 654.8 487C627.7 491 600.3 503 573 511C545.7 519 518.3 523 491 525C463.7 527 436.3 527 409 530C381.7 533 354.3 539 327 532C299.7 525 272.3 505 245.2 496C218 487 191 489 163.8 500C136.7 511 109.3 531 82 537C54.7 543 27.3 535 13.7 531L0 527Z" fill="#cc8302"></path><path d="M0 601L13.7 601C27.3 601 54.7 601 82 601C109.3 601 136.7 601 163.8 601C191 601 218 601 245.2 601C272.3 601 299.7 601 327 601C354.3 601 381.7 601 409 601C436.3 601 463.7 601 491 601C518.3 601 545.7 601 573 601C600.3 601 627.7 601 654.8 601C682 601 709 601 736.2 601C763.3 601 790.7 601 818 601C845.3 601 872.7 601 886.3 601L900 601L900 545L886.3 548C872.7 551 845.3 557 818 557C790.7 557 763.3 551 736.2 549C709 547 682 549 654.8 550C627.7 551 600.3 551 573 551C545.7 551 518.3 551 491 552C463.7 553 436.3 555 409 560C381.7 565 354.3 573 327 573C299.7 573 272.3 565 245.2 564C218 563 191 569 163.8 573C136.7 577 109.3 579 82 578C54.7 577 27.3 573 13.7 571L0 569Z" fill="#b97703"></path></svg>